<svg xmlns="http://www.w3.org/2000/svg" version="1.1" xmlns:xlink="http://www.w3.org/1999/xlink" xmlns:svgjs="http://svgjs.com/svgjs" width="531" height="531"><svg width="531" height="531" xmlns="http://www.w3.org/2000/svg" xmlns:xlink="http://www.w3.org/1999/xlink" xml:space="preserve" overflow="hidden"><g transform="translate(-262 54)"><g><g><path d="M131.718 287.595C70.5967 282.656 19.3881 239.579 4.40179 180.541 1.34406 168.444 0 157.557 0 145.091 0 90.3544 31.4846 40.1874 80.778 16.4311 100.132 7.08991 121.1 2.3521 142.873 2.3521 187.933 2.3521 230.439 23.7226 257.455 59.945 259.101 62.1291 260.411 64.0444 260.344 64.2124 260.109 64.8845 230.338 116.261 230.17 116.261 230.069 116.261 229.397 114.648 228.692 112.632 224.525 101.376 216.73 89.3127 207.792 80.4419 193.612 66.2957 175.837 57.4249 155.239 54.1992 149.762 53.3591 135.548 53.3591 130.038 54.1992 109.104 57.4585 91.732 66.1613 77.5522 80.5091 67.1694 91.0264 60.113 102.518 55.4424 116.597 52.4519 125.602 51.1414 132.927 50.839 142.672 50.3686 158.028 53.3927 172.14 60.1466 185.984 73.2848 212.899 98.99 231.649 129.366 236.42 134.07 237.159 146.603 237.428 151.778 236.924 169.351 235.143 186.421 228.188 200.265 217.133 204.163 214.041 211.084 207.153 214.176 203.289 216.965 199.794 220.997 193.78 222.509 190.856 223.819 188.336 324.624 13.7094 324.893 13.4406 324.993 13.3398 325.666 12.3989 326.405 11.3573 329.261 7.05631 334.368 3.22574 339.543 1.47847 343.374 0.168007 349.153-0.0336015 353.118 0.974443 360.477 2.82252 365.987 7.12351 369.683 13.8774 370.523 15.3895 406.242 77.317 449.05 151.509 491.892 225.668 527.006 286.587 527.106 286.822 527.241 287.225 522.57 287.293 497.772 287.293L468.237 287.293 410.24 186.723C378.353 131.449 351.135 84.1717 349.758 81.7524 348.38 79.2995 347.204 77.2834 347.103 77.2834 347.002 77.2834 329.026 108.331 307.151 146.267 263.503 221.871 263.872 221.266 259.975 226.81 245.728 247.172 226.877 263.268 204.835 273.886 188.74 281.648 171.468 286.251 153.357 287.595 147.947 288.032 136.892 287.998 131.718 287.595Z" stroke="#FF8496" stroke-width="0.0336015" transform="matrix(1.00006 0 0 -1 262 355.6)"></path></g></g></g></svg><style>@media (prefers-color-scheme: light) { :root { filter: none; } }
</style></svg>